<?xml version="1.0" standalone="no"?>
<!DOCTYPE svg PUBLIC "-//W3C//DTD SVG 20010904//EN"
 "http://www.w3.org/TR/2001/REC-SVG-20010904/DTD/svg10.dtd">
<svg version="1.0" xmlns="http://www.w3.org/2000/svg"
 width="1024.000000pt" height="1024.000000pt" viewBox="0 0 1024.000000 1024.000000"
 preserveAspectRatio="xMidYMid meet">

<g transform="translate(0.000000,1024.000000) scale(0.100000,-0.100000)"
fill="#000000" stroke="none">
<path d="M2515 8463 c-49 -8 -97 -21 -105 -28 -8 -7 -26 -16 -40 -20 -41 -12
-170 -83 -212 -116 -57 -46 -150 -164 -191 -244 -92 -178 -89 -469 7 -712 13
-35 22 -63 20 -63 -3 0 0 -9 6 -19 5 -11 17 -46 26 -78 8 -32 17 -65 20 -73
55 -189 88 -400 64 -415 -6 -3 -8 -11 -4 -16 3 -5 0 -17 -8 -26 -7 -9 -11 -17
-8 -17 12 -2 -62 -116 -82 -127 -34 -19 -119 -14 -201 12 -39 12 -76 25 -82
29 -5 4 -35 13 -65 20 -30 7 -62 17 -70 21 -52 29 -217 106 -280 131 -41 16
-102 44 -135 62 -33 18 -73 40 -90 49 -26 15 -159 81 -309 154 l-49 25 -23
-29 c-13 -15 -23 -31 -24 -36 0 -4 -29 -67 -64 -140 -35 -72 -67 -143 -71
-157 -4 -14 -11 -29 -15 -35 -5 -5 -16 -37 -25 -70 -17 -61 -36 -109 -60 -155
-7 -14 -16 -41 -20 -60 -4 -19 -12 -46 -18 -60 -13 -31 -18 -51 -19 -70 0 -8
-5 -21 -11 -28 -5 -7 -7 -15 -4 -18 3 -3 1 -18 -5 -33 -13 -33 -35 -210 -44
-362 -7 -116 8 -322 27 -385 5 -17 11 -40 13 -50 16 -82 64 -189 93 -207 7 -4
24 -27 38 -51 46 -78 222 -216 276 -216 8 0 28 -7 44 -16 19 -11 65 -18 126
-22 95 -4 98 -4 195 36 55 23 119 50 142 62 48 23 110 25 152 4 74 -37 132
-140 156 -278 22 -125 17 -363 -10 -485 -19 -85 -135 -107 -282 -53 -137 50
-234 59 -367 35 -108 -19 -225 -87 -279 -161 -112 -154 -131 -194 -159 -340
-18 -95 4 -473 31 -537 5 -11 14 -47 20 -80 6 -33 14 -67 17 -75 4 -8 7 -18 8
-22 2 -5 4 -10 5 -13 1 -3 3 -8 5 -12 1 -5 7 -21 13 -36 7 -16 12 -31 12 -35
0 -10 77 -205 94 -237 9 -17 16 -34 16 -38 0 -4 24 -45 54 -90 29 -45 58 -97
64 -114 6 -18 24 -49 39 -70 15 -20 37 -51 48 -69 11 -18 37 -58 59 -89 37
-55 39 -57 75 -50 20 4 45 14 56 24 25 22 93 61 106 61 6 0 29 12 52 28 35 23
117 65 287 146 14 7 43 22 65 34 39 21 117 54 123 52 1 0 15 6 30 15 25 14 68
28 222 71 30 9 60 19 65 24 6 4 30 11 55 15 25 4 72 14 105 22 66 17 144 14
285 -12 91 -17 293 -133 340 -197 44 -59 129 -220 136 -260 12 -62 20 -215 13
-264 -4 -33 -10 -79 -13 -104 -3 -25 -13 -90 -21 -145 -20 -126 -13 -380 12
-445 4 -8 5 -19 4 -24 -1 -4 4 -14 10 -22 6 -8 9 -14 6 -14 -9 0 69 -156 110
-220 35 -54 108 -111 218 -168 113 -59 307 -84 436 -57 150 31 174 38 196 51
12 8 28 14 36 14 19 0 168 101 181 123 6 10 36 43 66 75 46 48 61 73 92 157
76 203 83 297 35 455 -47 155 -82 236 -133 310 -17 25 -57 90 -89 145 -31 55
-69 120 -85 145 -15 25 -33 63 -40 85 -7 22 -18 47 -25 55 -15 17 -40 102 -50
167 -4 24 -11 46 -16 49 -6 3 -9 64 -8 141 1 148 19 232 67 332 29 58 143 181
192 206 16 8 46 27 66 40 21 14 49 28 63 32 14 3 49 16 76 29 28 12 95 32 150
44 119 26 369 31 553 10 l112 -13 0 -161 c0 -219 -19 -681 -30 -731 -5 -22
-11 -83 -15 -135 -3 -52 -10 -117 -15 -145 -5 -27 -12 -96 -16 -152 l-7 -103
74 0 c41 0 117 5 169 10 259 28 363 40 380 45 8 3 85 14 170 25 85 10 166 22
180 26 14 3 48 9 75 14 69 11 221 44 340 76 55 14 125 31 155 38 128 30 294
130 322 194 35 81 41 175 18 265 -21 80 -33 102 -85 157 -23 25 -61 73 -84
106 -38 55 -42 66 -35 100 3 22 12 49 18 61 30 57 189 199 261 233 17 8 36 19
44 24 32 24 167 76 212 82 40 5 63 1 123 -22 74 -28 101 -53 109 -100 1 -11 6
-25 11 -32 5 -8 12 -75 15 -150 5 -97 12 -147 25 -172 61 -125 95 -163 189
-208 51 -25 75 -31 139 -32 42 0 79 3 82 8 3 5 20 9 37 10 34 1 109 24 254 78
50 18 115 42 145 52 219 77 294 106 425 167 17 8 75 33 130 56 195 81 270 114
285 124 8 5 52 28 97 50 l81 40 -28 58 c-16 31 -30 61 -30 65 -1 4 -35 75 -76
159 -41 83 -74 156 -74 162 0 5 -17 43 -38 83 -46 88 -88 185 -112 254 -10 28
-23 59 -29 70 -5 10 -22 46 -36 79 -15 33 -32 71 -39 85 -8 14 -19 43 -26 65
-7 22 -19 48 -28 58 -8 9 -12 17 -8 17 4 0 0 10 -8 22 -9 12 -16 28 -16 35 0
17 -65 189 -85 224 -8 14 -16 36 -19 50 -6 33 -36 119 -52 150 -8 15 -15 42
-16 60 -3 31 -1 34 27 36 17 2 71 9 120 17 193 32 328 51 455 65 242 28 269
32 340 55 134 43 243 132 303 246 19 36 43 81 54 100 11 19 23 49 28 65 4 17
9 35 11 40 31 106 28 331 -6 427 -11 32 -20 65 -20 73 0 9 -5 26 -12 38 -7 12
-13 27 -14 34 -5 27 -78 142 -117 184 -24 26 -50 56 -58 67 -17 23 -142 108
-215 145 -28 14 -88 38 -134 52 -70 23 -95 27 -164 23 -79 -4 -89 -8 -238 -81
-86 -42 -161 -77 -168 -77 -7 0 -24 -8 -38 -19 -15 -10 -38 -22 -52 -26 -14
-4 -53 -23 -88 -41 -35 -19 -72 -34 -82 -34 -10 0 -21 -4 -24 -9 -3 -5 -38
-17 -78 -26 -40 -10 -100 -26 -132 -36 -94 -30 -90 -33 -110 84 -10 56 -22
127 -28 157 -5 30 -12 201 -15 380 -7 403 3 597 52 984 12 89 14 131 6 139
-20 20 -1056 14 -1090 -7 -3 -2 -22 -7 -41 -10 -77 -12 -147 -40 -219 -88 -75
-49 -104 -81 -169 -182 -89 -139 -80 -291 27 -451 62 -93 97 -162 105 -206 8
-46 -12 -112 -54 -177 -29 -44 -47 -58 -134 -103 -56 -29 -123 -58 -151 -65
-110 -30 -206 -11 -307 60 -81 57 -88 74 -85 226 1 92 -2 112 -23 160 -63 143
-240 311 -362 341 -29 7 -55 14 -58 14 -3 1 -12 5 -20 8 -27 12 -184 -1 -255
-21 -39 -11 -87 -23 -114 -28 -7 -1 -18 -7 -24 -13 -6 -6 -18 -11 -28 -11 -9
0 -38 -9 -65 -19 -27 -10 -87 -31 -134 -45 -260 -80 -321 -101 -372 -127 -10
-5 -24 -9 -32 -9 -20 0 -145 -51 -231 -94 -38 -20 -75 -36 -82 -36 -6 0 -43
-18 -82 -40 -39 -22 -74 -40 -79 -40 -4 0 -30 -14 -58 -31 -27 -18 -73 -40
-102 -50 -29 -10 -65 -27 -80 -37 -15 -10 -43 -25 -62 -32 -19 -8 -61 -29 -92
-47 -31 -18 -64 -33 -74 -33 -10 0 -36 -9 -58 -19 -23 -11 -88 -39 -146 -62
-196 -79 -286 -64 -354 57 -18 33 -26 62 -27 102 -1 61 9 158 18 182 3 8 8 20
10 25 2 6 8 39 14 75 6 36 29 117 50 180 21 63 39 124 39 135 0 12 4 25 9 30
9 12 26 73 42 163 15 80 6 267 -17 342 -20 69 -45 117 -102 203 -70 104 -148
170 -282 234 -184 89 -297 107 -485 76z m5681 -668 c-3 -8 -8 -43 -11 -78 -12
-145 -16 -188 -26 -302 -6 -66 -12 -280 -12 -475 -2 -312 1 -375 20 -525 12
-93 29 -201 38 -240 29 -124 66 -279 75 -315 5 -19 20 -78 34 -131 13 -52 48
-169 77 -260 28 -90 62 -200 75 -244 13 -44 42 -132 64 -195 23 -63 61 -173
85 -245 24 -71 65 -177 90 -235 26 -58 56 -127 66 -155 46 -127 70 -187 93
-236 14 -29 26 -58 26 -64 0 -6 13 -36 28 -66 15 -30 39 -82 52 -114 13 -33
29 -67 37 -76 8 -9 16 -29 19 -44 3 -15 20 -58 39 -94 18 -36 36 -76 40 -89 4
-13 24 -59 46 -103 21 -43 39 -82 39 -86 0 -5 18 -45 40 -91 22 -46 40 -86 40
-91 0 -7 -92 -51 -136 -65 -11 -3 -62 -28 -113 -56 -52 -27 -126 -61 -165 -76
-39 -15 -84 -33 -101 -40 -16 -8 -50 -20 -75 -28 -64 -21 -250 -93 -355 -137
-41 -18 -173 -61 -259 -84 -141 -39 -197 -31 -265 36 -54 55 -59 68 -71 199
-20 229 -45 292 -152 381 -98 83 -101 84 -218 84 l-106 0 -119 -58 c-66 -32
-129 -67 -140 -76 -11 -10 -48 -34 -81 -53 -34 -20 -93 -67 -131 -104 -80 -78
-126 -164 -137 -256 -10 -76 25 -162 97 -239 75 -81 127 -173 127 -225 0 -58
-45 -122 -118 -166 -67 -41 -80 -46 -152 -64 -30 -7 -73 -18 -95 -24 -22 -6
-60 -15 -85 -20 -25 -5 -65 -13 -90 -19 -134 -30 -325 -63 -461 -81 -85 -10
-225 -28 -312 -40 -87 -11 -189 -20 -227 -20 l-69 0 4 32 c16 123 38 352 56
583 29 365 23 741 -15 1050 -14 116 -31 234 -36 264 -15 84 -13 109 11 116 36
12 116 7 155 -10 126 -52 320 -58 450 -12 172 60 309 195 358 353 34 107 43
298 22 439 -23 157 -45 220 -115 325 -99 152 -235 256 -411 316 -71 24 -201
24 -290 -1 -86 -24 -234 -98 -290 -145 -25 -21 -77 -53 -115 -73 l-70 -35 1
239 c0 131 -3 267 -7 301 -4 35 -13 117 -19 183 -11 123 -36 271 -72 430 -19
83 -34 141 -74 285 -22 79 -71 204 -110 284 -19 38 -32 71 -29 74 7 7 302 108
385 132 36 10 119 37 185 59 109 38 217 67 379 102 68 15 167 2 246 -32 63
-27 157 -126 196 -204 27 -56 29 -68 29 -180 l0 -120 42 -60 c66 -95 115 -140
189 -176 68 -33 70 -34 209 -33 138 0 141 1 228 37 98 40 164 84 226 152 23
25 45 45 50 45 4 0 23 28 42 63 28 53 34 74 37 149 5 110 -15 171 -92 275 -65
88 -102 191 -92 259 8 63 52 150 98 195 52 51 170 99 293 120 143 24 890 27
881 4z"/>
<path d="M10080 80 l0 -80 80 0 80 0 0 80 0 80 -80 0 -80 0 0 -80z"/>
</g>
</svg>
