<svg width="272" height="146" viewBox="0 0 272 146" fill="none" xmlns="http://www.w3.org/2000/svg">
<path d="M0 0H260V122H0V0Z" fill="#222222"/>
<rect width="78" height="28" fill="white" fill-opacity="0.1"/>
<path d="M18.4951 13.1074V19H16.8477V11.6035H18.3994L18.4951 13.1074ZM18.2285 15.0283L17.668 15.0215C17.668 14.5111 17.7318 14.0394 17.8594 13.6064C17.987 13.1735 18.1738 12.7975 18.4199 12.4785C18.666 12.1549 18.9714 11.9066 19.3359 11.7334C19.7051 11.5557 20.1312 11.4668 20.6143 11.4668C20.9515 11.4668 21.2591 11.5169 21.5371 11.6172C21.8197 11.7129 22.0635 11.8656 22.2686 12.0752C22.4782 12.2848 22.6377 12.5537 22.7471 12.8818C22.861 13.21 22.918 13.6064 22.918 14.0713V19H21.2705V14.2148C21.2705 13.8548 21.2158 13.5723 21.1064 13.3672C21.0016 13.1621 20.849 13.0163 20.6484 12.9297C20.4525 12.8385 20.2178 12.793 19.9443 12.793C19.6344 12.793 19.3701 12.8522 19.1514 12.9707C18.9372 13.0892 18.7617 13.251 18.625 13.4561C18.4883 13.6611 18.388 13.8981 18.3242 14.167C18.2604 14.4359 18.2285 14.723 18.2285 15.0283ZM22.8154 14.5908L22.043 14.7617C22.043 14.3151 22.1045 13.8936 22.2275 13.4971C22.3551 13.096 22.5397 12.7451 22.7812 12.4443C23.0273 12.139 23.3304 11.8997 23.6904 11.7266C24.0505 11.5534 24.4629 11.4668 24.9277 11.4668C25.306 11.4668 25.6432 11.5192 25.9395 11.624C26.2402 11.7243 26.4954 11.8838 26.7051 12.1025C26.9147 12.3213 27.0742 12.6061 27.1836 12.957C27.293 13.3034 27.3477 13.7227 27.3477 14.2148V19H25.6934V14.208C25.6934 13.8343 25.6387 13.5449 25.5293 13.3398C25.4245 13.1348 25.2741 12.9935 25.0781 12.916C24.8822 12.834 24.6475 12.793 24.374 12.793C24.1188 12.793 23.8932 12.8408 23.6973 12.9365C23.5059 13.0277 23.3441 13.1576 23.2119 13.3262C23.0798 13.4902 22.9795 13.6794 22.9111 13.8936C22.8473 14.1077 22.8154 14.3402 22.8154 14.5908ZM33.2129 17.5166V13.9893C33.2129 13.7249 33.165 13.4971 33.0693 13.3057C32.9736 13.1143 32.8278 12.9661 32.6318 12.8613C32.4404 12.7565 32.1989 12.7041 31.9072 12.7041C31.6383 12.7041 31.4059 12.7497 31.21 12.8408C31.014 12.932 30.8613 13.055 30.752 13.21C30.6426 13.3649 30.5879 13.5404 30.5879 13.7363H28.9473C28.9473 13.4447 29.0179 13.1621 29.1592 12.8887C29.3005 12.6152 29.5055 12.3714 29.7744 12.1572C30.0433 11.943 30.3646 11.7744 30.7383 11.6514C31.112 11.5283 31.5312 11.4668 31.9961 11.4668C32.5521 11.4668 33.0443 11.5602 33.4727 11.7471C33.9056 11.9339 34.2451 12.2165 34.4912 12.5947C34.7419 12.9684 34.8672 13.4378 34.8672 14.0029V17.291C34.8672 17.6283 34.89 17.9313 34.9355 18.2002C34.9857 18.4645 35.0563 18.6947 35.1475 18.8906V19H33.459C33.3815 18.8223 33.32 18.5967 33.2744 18.3232C33.2334 18.0452 33.2129 17.7764 33.2129 17.5166ZM33.4521 14.502L33.4658 15.5205H32.2832C31.9779 15.5205 31.709 15.5501 31.4766 15.6094C31.2441 15.6641 31.0505 15.7461 30.8955 15.8555C30.7406 15.9648 30.6243 16.097 30.5469 16.252C30.4694 16.4069 30.4307 16.5824 30.4307 16.7783C30.4307 16.9743 30.4762 17.1543 30.5674 17.3184C30.6585 17.4779 30.7907 17.6032 30.9639 17.6943C31.1416 17.7855 31.3558 17.8311 31.6064 17.8311C31.9437 17.8311 32.2376 17.7627 32.4883 17.626C32.7435 17.4847 32.944 17.3138 33.0898 17.1133C33.2357 16.9082 33.3132 16.7145 33.3223 16.5322L33.8555 17.2637C33.8008 17.4505 33.7074 17.651 33.5752 17.8652C33.443 18.0794 33.2699 18.2845 33.0557 18.4805C32.846 18.6719 32.5931 18.8291 32.2969 18.9521C32.0052 19.0752 31.668 19.1367 31.2852 19.1367C30.8021 19.1367 30.3714 19.041 29.9932 18.8496C29.6149 18.6536 29.3187 18.3916 29.1045 18.0635C28.8903 17.7308 28.7832 17.3548 28.7832 16.9355C28.7832 16.5436 28.8561 16.1973 29.002 15.8965C29.1523 15.5911 29.3711 15.3359 29.6582 15.1309C29.9499 14.9258 30.3053 14.7708 30.7246 14.666C31.1439 14.5566 31.6224 14.502 32.1602 14.502H33.4521ZM38.3535 11.6035V19H36.6992V11.6035H38.3535ZM36.5898 9.66211C36.5898 9.41146 36.6719 9.2041 36.8359 9.04004C37.0046 8.87142 37.237 8.78711 37.5332 8.78711C37.8249 8.78711 38.055 8.87142 38.2236 9.04004C38.3923 9.2041 38.4766 9.41146 38.4766 9.66211C38.4766 9.9082 38.3923 10.1133 38.2236 10.2773C38.055 10.4414 37.8249 10.5234 37.5332 10.5234C37.237 10.5234 37.0046 10.4414 36.8359 10.2773C36.6719 10.1133 36.5898 9.9082 36.5898 9.66211ZM41.792 13.1826V19H40.1445V11.6035H41.6963L41.792 13.1826ZM41.498 15.0283L40.9648 15.0215C40.9694 14.4974 41.0423 14.0166 41.1836 13.5791C41.3294 13.1416 41.5299 12.7656 41.7852 12.4512C42.0449 12.1367 42.3548 11.8952 42.7148 11.7266C43.0749 11.5534 43.4759 11.4668 43.918 11.4668C44.2734 11.4668 44.5947 11.5169 44.8818 11.6172C45.1735 11.7129 45.4219 11.8701 45.627 12.0889C45.8366 12.3076 45.9961 12.5924 46.1055 12.9434C46.2148 13.2897 46.2695 13.7158 46.2695 14.2217V19H44.6152V14.2148C44.6152 13.8594 44.5628 13.5791 44.458 13.374C44.3577 13.1644 44.2096 13.0163 44.0137 12.9297C43.8223 12.8385 43.583 12.793 43.2959 12.793C43.0133 12.793 42.7604 12.8522 42.5371 12.9707C42.3138 13.0892 42.1247 13.251 41.9697 13.4561C41.8193 13.6611 41.7031 13.8981 41.6211 14.167C41.5391 14.4359 41.498 14.723 41.498 15.0283ZM48.0195 18.1797C48.0195 17.9245 48.1061 17.7103 48.2793 17.5371C48.4525 17.3594 48.6872 17.2705 48.9834 17.2705C49.2842 17.2705 49.5189 17.3594 49.6875 17.5371C49.8607 17.7103 49.9473 17.9245 49.9473 18.1797C49.9473 18.4349 49.8607 18.6491 49.6875 18.8223C49.5189 18.9954 49.2842 19.082 48.9834 19.082C48.6872 19.082 48.4525 18.9954 48.2793 18.8223C48.1061 18.6491 48.0195 18.4349 48.0195 18.1797ZM51.9297 11.6035H53.584V19.6426C53.584 20.1484 53.4974 20.5745 53.3242 20.9209C53.151 21.2718 52.8958 21.5361 52.5586 21.7139C52.2214 21.8962 51.8089 21.9873 51.3213 21.9873C51.1755 21.9873 51.0251 21.9759 50.8701 21.9531C50.7106 21.9349 50.5602 21.9076 50.4189 21.8711L50.4258 20.5859C50.5215 20.6042 50.624 20.6178 50.7334 20.627C50.8382 20.6406 50.9385 20.6475 51.0342 20.6475C51.2301 20.6475 51.3942 20.6133 51.5264 20.5449C51.6585 20.4766 51.7588 20.3695 51.8271 20.2236C51.8955 20.0778 51.9297 19.8841 51.9297 19.6426V11.6035ZM51.7861 9.66211C51.7861 9.41146 51.8704 9.2041 52.0391 9.04004C52.2077 8.87142 52.4378 8.78711 52.7295 8.78711C53.0257 8.78711 53.2559 8.87142 53.4199 9.04004C53.5885 9.2041 53.6729 9.41146 53.6729 9.66211C53.6729 9.9082 53.5885 10.1133 53.4199 10.2773C53.2559 10.4414 53.0257 10.5234 52.7295 10.5234C52.4378 10.5234 52.2077 10.4414 52.0391 10.2773C51.8704 10.1133 51.7861 9.9082 51.7861 9.66211ZM59.5107 16.9971C59.5107 16.833 59.4697 16.6849 59.3877 16.5527C59.3057 16.416 59.1484 16.293 58.916 16.1836C58.6882 16.0742 58.3509 15.974 57.9043 15.8828C57.5124 15.7962 57.1523 15.6937 56.8242 15.5752C56.5007 15.4521 56.2227 15.304 55.9902 15.1309C55.7578 14.9577 55.5778 14.7526 55.4502 14.5156C55.3226 14.2786 55.2588 14.0052 55.2588 13.6953C55.2588 13.3945 55.3249 13.1097 55.457 12.8408C55.5892 12.5719 55.7783 12.335 56.0244 12.1299C56.2705 11.9248 56.569 11.763 56.9199 11.6445C57.2754 11.526 57.6719 11.4668 58.1094 11.4668C58.7292 11.4668 59.2601 11.5716 59.7021 11.7812C60.1488 11.9863 60.4906 12.2666 60.7275 12.6221C60.9645 12.973 61.083 13.3695 61.083 13.8115H59.4355C59.4355 13.6156 59.3854 13.4333 59.2852 13.2646C59.1895 13.0915 59.0436 12.9525 58.8477 12.8477C58.6517 12.7383 58.4056 12.6836 58.1094 12.6836C57.8268 12.6836 57.5921 12.7292 57.4053 12.8203C57.223 12.9069 57.0863 13.0208 56.9951 13.1621C56.9085 13.3034 56.8652 13.4583 56.8652 13.627C56.8652 13.75 56.888 13.8617 56.9336 13.9619C56.9837 14.0576 57.0658 14.1465 57.1797 14.2285C57.2936 14.306 57.4486 14.3789 57.6445 14.4473C57.8451 14.5156 58.0957 14.5817 58.3965 14.6455C58.9616 14.764 59.4469 14.9167 59.8525 15.1035C60.2627 15.2858 60.5771 15.5228 60.7959 15.8145C61.0146 16.1016 61.124 16.4661 61.124 16.9082C61.124 17.2363 61.0534 17.5371 60.9121 17.8105C60.7754 18.0794 60.5749 18.3141 60.3105 18.5146C60.0462 18.7106 59.7295 18.8633 59.3604 18.9727C58.9958 19.082 58.5856 19.1367 58.1299 19.1367C57.46 19.1367 56.8926 19.0182 56.4277 18.7812C55.9629 18.5397 55.6097 18.2321 55.3682 17.8584C55.1312 17.4801 55.0127 17.0882 55.0127 16.6826H56.6055C56.6237 16.988 56.708 17.2318 56.8584 17.4141C57.0133 17.5918 57.2048 17.7217 57.4326 17.8037C57.665 17.8812 57.9043 17.9199 58.1504 17.9199C58.4466 17.9199 58.695 17.8812 58.8955 17.8037C59.096 17.7217 59.2487 17.6123 59.3535 17.4756C59.4583 17.3343 59.5107 17.1748 59.5107 16.9971Z" fill="white" fill-opacity="0.8"/>
<path d="M30.4219 69H28.2266V60.2734L25.3516 61.3047V59.4141L30.3047 57.625H30.4219V69ZM32.5391 91H24.7812V89.5156L28.4609 85.5625C28.7474 85.25 28.9896 84.9661 29.1875 84.7109C29.3854 84.4557 29.5469 84.2214 29.6719 84.0078C29.7917 83.7995 29.8776 83.6042 29.9297 83.4219C29.987 83.2396 30.0156 83.0625 30.0156 82.8906C30.0156 82.6354 29.9792 82.4089 29.9062 82.2109C29.8333 82.013 29.7318 81.8438 29.6016 81.7031C29.4661 81.5677 29.3047 81.4635 29.1172 81.3906C28.9349 81.3177 28.7318 81.2812 28.5078 81.2812C28.2161 81.2812 27.9583 81.3229 27.7344 81.4062C27.5156 81.4844 27.3333 81.6016 27.1875 81.7578C27.0365 81.9193 26.9219 82.1198 26.8438 82.3594C26.7656 82.599 26.7266 82.8724 26.7266 83.1797H24.5469C24.5469 82.6745 24.6432 82.1979 24.8359 81.75C25.0286 81.2969 25.3021 80.901 25.6562 80.5625C26.0052 80.224 26.4271 79.9583 26.9219 79.7656C27.4219 79.5677 27.974 79.4688 28.5781 79.4688C29.1562 79.4688 29.6667 79.5495 30.1094 79.7109C30.5573 79.8724 30.9323 80.099 31.2344 80.3906C31.5312 80.6823 31.7578 81.0339 31.9141 81.4453C32.0703 81.8516 32.1484 82.3021 32.1484 82.7969C32.1484 83.1719 32.0885 83.5312 31.9688 83.875C31.8542 84.2135 31.6901 84.5495 31.4766 84.8828C31.2578 85.2161 30.9974 85.5573 30.6953 85.9062C30.3932 86.25 30.0573 86.612 29.6875 86.9922L27.5469 89.2578H32.5391V91Z" fill="white" fill-opacity="0.4"/>
<path d="M69.5391 69.9766H67.8203L72.2891 57.625H74L69.5391 69.9766ZM79.1484 69.9766H77.4297L81.8984 57.625H83.6094L79.1484 69.9766ZM87.4922 72.4141C87.3099 72.4141 87.1354 72.3984 86.9688 72.3672C86.8073 72.3411 86.651 72.3099 86.5 72.2734L86.7578 70.8125C86.862 70.8177 86.9792 70.8229 87.1094 70.8281C87.2448 70.8385 87.3542 70.8438 87.4375 70.8438C87.6198 70.8438 87.7839 70.7891 87.9297 70.6797C88.0755 70.5755 88.2031 70.4557 88.3125 70.3203C88.4167 70.1849 88.5 70.0651 88.5625 69.9609C88.6302 69.8568 88.6927 69.7474 88.75 69.6328L89.2812 68.625L85.6797 60.5469H87.7344L89.8359 65.7109L90.125 66.6406L90.4766 65.7344L92.5156 60.5469H94.5859L90.2969 70.2812C90.1979 70.5 90.0729 70.7318 89.9219 70.9766C89.776 71.2266 89.5911 71.4557 89.3672 71.6641C89.1432 71.8776 88.8776 72.0547 88.5703 72.1953C88.263 72.3411 87.9036 72.4141 87.4922 72.4141ZM95.6953 64.6953C95.6953 64.0807 95.7839 63.513 95.9609 62.9922C96.138 62.4661 96.3958 62.0104 96.7344 61.625C97.0677 61.2396 97.4766 60.9375 97.9609 60.7188C98.4453 60.5 98.9974 60.3906 99.6172 60.3906C100.237 60.3906 100.789 60.5 101.273 60.7188C101.763 60.9375 102.177 61.2396 102.516 61.625C102.849 62.0104 103.104 62.4661 103.281 62.9922C103.458 63.513 103.547 64.0807 103.547 64.6953V64.8594C103.547 65.4792 103.458 66.0495 103.281 66.5703C103.104 67.0911 102.849 67.5443 102.516 67.9297C102.182 68.3151 101.771 68.6172 101.281 68.8359C100.797 69.0547 100.247 69.1641 99.6328 69.1641C99.013 69.1641 98.4583 69.0547 97.9688 68.8359C97.4792 68.6172 97.0677 68.3151 96.7344 67.9297C96.3958 67.5443 96.138 67.0911 95.9609 66.5703C95.7839 66.0495 95.6953 65.4792 95.6953 64.8594V64.6953ZM97.5625 64.8594C97.5625 65.2396 97.6016 65.599 97.6797 65.9375C97.763 66.276 97.8906 66.5729 98.0625 66.8281C98.2292 67.0833 98.4427 67.2865 98.7031 67.4375C98.9635 67.5833 99.2734 67.6562 99.6328 67.6562C99.9818 67.6562 100.286 67.5833 100.547 67.4375C100.807 67.2865 101.021 67.0833 101.188 66.8281C101.354 66.5729 101.477 66.276 101.555 65.9375C101.638 65.599 101.68 65.2396 101.68 64.8594V64.6953C101.68 64.3255 101.638 63.9714 101.555 63.6328C101.471 63.2943 101.349 62.9974 101.188 62.7422C101.016 62.487 100.799 62.2839 100.539 62.1328C100.284 61.9818 99.9766 61.9062 99.6172 61.9062C99.263 61.9062 98.9557 61.9818 98.6953 62.1328C98.4401 62.2839 98.2292 62.487 98.0625 62.7422C97.8906 62.9974 97.763 63.2943 97.6797 63.6328C97.6016 63.9714 97.5625 64.3255 97.5625 64.6953V64.8594ZM111.188 69L111.078 67.8203C110.792 68.2422 110.443 68.5729 110.031 68.8125C109.62 69.0469 109.159 69.1641 108.648 69.1641C108.211 69.1641 107.81 69.0964 107.445 68.9609C107.086 68.8203 106.776 68.6042 106.516 68.3125C106.26 68.0208 106.062 67.6484 105.922 67.1953C105.781 66.737 105.711 66.1901 105.711 65.5547V60.5469H107.578V65.5703C107.578 65.9609 107.607 66.2891 107.664 66.5547C107.721 66.8151 107.812 67.0234 107.938 67.1797C108.062 67.3411 108.221 67.4557 108.414 67.5234C108.607 67.5911 108.833 67.625 109.094 67.625C109.365 67.625 109.607 67.5964 109.82 67.5391C110.034 67.4766 110.221 67.3932 110.383 67.2891C110.518 67.1953 110.638 67.0859 110.742 66.9609C110.846 66.8307 110.935 66.6875 111.008 66.5312V60.5469H112.883V69H111.188ZM121.102 60.3906C121.404 60.3906 121.695 60.4115 121.977 60.4531C122.263 60.4948 122.487 60.5443 122.648 60.6016L122.383 62.4453C122.096 62.3828 121.812 62.3359 121.531 62.3047C121.255 62.2734 120.979 62.2578 120.703 62.2578C120.391 62.2578 120.109 62.2891 119.859 62.3516C119.609 62.4141 119.388 62.5104 119.195 62.6406C118.987 62.7656 118.81 62.9245 118.664 63.1172C118.518 63.3099 118.396 63.5312 118.297 63.7812V69H116.43V60.5469H118.18L118.258 61.7188L118.266 61.9141C118.609 61.4401 119.021 61.0677 119.5 60.7969C119.984 60.526 120.518 60.3906 121.102 60.3906ZM138.156 67.6562C138.391 67.6562 138.615 67.6224 138.828 67.5547C139.047 67.4818 139.24 67.3802 139.406 67.25C139.568 67.1198 139.695 66.9661 139.789 66.7891C139.888 66.612 139.938 66.4167 139.938 66.2031H141.695C141.701 66.6146 141.607 67.0026 141.414 67.3672C141.227 67.7266 140.971 68.0365 140.648 68.2969C140.32 68.5677 139.943 68.7812 139.516 68.9375C139.094 69.0885 138.648 69.1641 138.18 69.1641C137.529 69.1641 136.958 69.0521 136.469 68.8281C135.984 68.599 135.581 68.2917 135.258 67.9062C134.93 67.5208 134.682 67.0729 134.516 66.5625C134.349 66.0469 134.266 65.4974 134.266 64.9141V64.6406C134.266 64.0625 134.346 63.5156 134.508 63C134.674 62.4844 134.922 62.0339 135.25 61.6484C135.578 61.263 135.984 60.9583 136.469 60.7344C136.958 60.5052 137.526 60.3906 138.172 60.3906C138.682 60.3906 139.154 60.4688 139.586 60.625C140.023 60.7812 140.398 61 140.711 61.2812C141.023 61.5625 141.266 61.8984 141.438 62.2891C141.615 62.6797 141.701 63.1094 141.695 63.5781H139.938C139.938 63.349 139.893 63.1328 139.805 62.9297C139.721 62.7266 139.602 62.5495 139.445 62.3984C139.284 62.2474 139.091 62.1276 138.867 62.0391C138.648 61.9505 138.411 61.9062 138.156 61.9062C137.766 61.9062 137.44 61.987 137.18 62.1484C136.924 62.3047 136.721 62.5104 136.57 62.7656C136.409 63.0208 136.294 63.3125 136.227 63.6406C136.164 63.9688 136.133 64.3021 136.133 64.6406V64.9141C136.133 65.2578 136.164 65.5964 136.227 65.9297C136.294 66.2578 136.406 66.5469 136.562 66.7969C136.714 67.0573 136.919 67.2656 137.18 67.4219C137.44 67.5781 137.766 67.6562 138.156 67.6562ZM143.742 64.6953C143.742 64.0807 143.831 63.513 144.008 62.9922C144.185 62.4661 144.443 62.0104 144.781 61.625C145.115 61.2396 145.523 60.9375 146.008 60.7188C146.492 60.5 147.044 60.3906 147.664 60.3906C148.284 60.3906 148.836 60.5 149.32 60.7188C149.81 60.9375 150.224 61.2396 150.562 61.625C150.896 62.0104 151.151 62.4661 151.328 62.9922C151.505 63.513 151.594 64.0807 151.594 64.6953V64.8594C151.594 65.4792 151.505 66.0495 151.328 66.5703C151.151 67.0911 150.896 67.5443 150.562 67.9297C150.229 68.3151 149.818 68.6172 149.328 68.8359C148.844 69.0547 148.294 69.1641 147.68 69.1641C147.06 69.1641 146.505 69.0547 146.016 68.8359C145.526 68.6172 145.115 68.3151 144.781 67.9297C144.443 67.5443 144.185 67.0911 144.008 66.5703C143.831 66.0495 143.742 65.4792 143.742 64.8594V64.6953ZM145.609 64.8594C145.609 65.2396 145.648 65.599 145.727 65.9375C145.81 66.276 145.938 66.5729 146.109 66.8281C146.276 67.0833 146.49 67.2865 146.75 67.4375C147.01 67.5833 147.32 67.6562 147.68 67.6562C148.029 67.6562 148.333 67.5833 148.594 67.4375C148.854 67.2865 149.068 67.0833 149.234 66.8281C149.401 66.5729 149.523 66.276 149.602 65.9375C149.685 65.599 149.727 65.2396 149.727 64.8594V64.6953C149.727 64.3255 149.685 63.9714 149.602 63.6328C149.518 63.2943 149.396 62.9974 149.234 62.7422C149.062 62.487 148.846 62.2839 148.586 62.1328C148.331 61.9818 148.023 61.9062 147.664 61.9062C147.31 61.9062 147.003 61.9818 146.742 62.1328C146.487 62.2839 146.276 62.487 146.109 62.7422C145.938 62.9974 145.81 63.2943 145.727 63.6328C145.648 63.9714 145.609 64.3255 145.609 64.6953V64.8594ZM153.445 64.7109C153.445 64.0703 153.521 63.487 153.672 62.9609C153.828 62.4297 154.052 61.974 154.344 61.5938C154.63 61.2135 154.979 60.9193 155.391 60.7109C155.807 60.4974 156.276 60.3906 156.797 60.3906C157.266 60.3906 157.674 60.474 158.023 60.6406C158.378 60.8021 158.69 61.0339 158.961 61.3359V57H160.828V69H159.133L159.047 68.1172C158.776 68.4505 158.453 68.7083 158.078 68.8906C157.703 69.0677 157.271 69.1562 156.781 69.1562C156.266 69.1562 155.802 69.0495 155.391 68.8359C154.979 68.6172 154.63 68.3151 154.344 67.9297C154.057 67.5495 153.836 67.099 153.68 66.5781C153.523 66.0521 153.445 65.4844 153.445 64.875V64.7109ZM155.312 64.875C155.312 65.25 155.349 65.6042 155.422 65.9375C155.495 66.2708 155.609 66.5599 155.766 66.8047C155.922 67.0599 156.122 67.2604 156.367 67.4062C156.612 67.5469 156.906 67.6172 157.25 67.6172C157.672 67.6172 158.021 67.526 158.297 67.3438C158.573 67.1562 158.794 66.9036 158.961 66.5859V62.9531C158.794 62.6406 158.573 62.3932 158.297 62.2109C158.026 62.0234 157.682 61.9297 157.266 61.9297C156.917 61.9297 156.617 62.0026 156.367 62.1484C156.122 62.2943 155.924 62.4948 155.773 62.75C155.612 63.0052 155.495 63.3021 155.422 63.6406C155.349 63.974 155.312 64.3307 155.312 64.7109V64.875ZM167.25 69.1562C166.625 69.1562 166.052 69.0521 165.531 68.8438C165.016 68.6354 164.573 68.3464 164.203 67.9766C163.833 67.612 163.547 67.1823 163.344 66.6875C163.146 66.1875 163.047 65.6484 163.047 65.0703V64.75C163.047 64.0885 163.151 63.4896 163.359 62.9531C163.568 62.4167 163.854 61.9583 164.219 61.5781C164.583 61.1979 165.005 60.9062 165.484 60.7031C165.969 60.4948 166.484 60.3906 167.031 60.3906C167.641 60.3906 168.18 60.4948 168.648 60.7031C169.117 60.9062 169.51 61.1901 169.828 61.5547C170.146 61.9245 170.385 62.3646 170.547 62.875C170.708 63.3854 170.789 63.9427 170.789 64.5469V65.3516H164.93V65.3906C164.987 65.7604 165.076 66.0703 165.195 66.3203C165.315 66.5703 165.479 66.7943 165.688 66.9922C165.896 67.2005 166.141 67.362 166.422 67.4766C166.708 67.5911 167.021 67.6484 167.359 67.6484C167.823 67.6484 168.255 67.5599 168.656 67.3828C169.057 67.2005 169.388 66.9427 169.648 66.6094L170.648 67.5781C170.367 67.9844 169.935 68.349 169.352 68.6719C168.773 68.9948 168.073 69.1562 167.25 69.1562ZM167.023 61.9062C166.758 61.9062 166.51 61.9557 166.281 62.0547C166.057 62.1484 165.857 62.2839 165.68 62.4609C165.503 62.6432 165.354 62.862 165.234 63.1172C165.115 63.3724 165.026 63.6615 164.969 63.9844H168.945V63.8594C168.945 63.6146 168.901 63.3724 168.812 63.1328C168.724 62.888 168.599 62.6745 168.438 62.4922C168.281 62.3151 168.083 62.1745 167.844 62.0703C167.609 61.9609 167.336 61.9062 167.023 61.9062ZM184.391 61.75C184.5 61.5833 184.622 61.4297 184.758 61.2891C184.893 61.1484 185.036 61.026 185.188 60.9219C185.422 60.75 185.68 60.6198 185.961 60.5312C186.247 60.4375 186.549 60.3906 186.867 60.3906C187.31 60.3906 187.714 60.4557 188.078 60.5859C188.448 60.7161 188.763 60.9193 189.023 61.1953C189.284 61.4714 189.484 61.8255 189.625 62.2578C189.771 62.6849 189.844 63.1979 189.844 63.7969V69H187.977V63.7812C187.977 63.4688 187.938 63.1953 187.859 62.9609C187.786 62.7266 187.677 62.5365 187.531 62.3906C187.38 62.2344 187.195 62.1198 186.977 62.0469C186.763 61.9688 186.516 61.9297 186.234 61.9297C186.016 61.9297 185.807 61.9557 185.609 62.0078C185.417 62.0599 185.24 62.1354 185.078 62.2344C184.943 62.3125 184.815 62.4062 184.695 62.5156C184.581 62.625 184.479 62.7474 184.391 62.8828V69H182.523V57H184.391V61.75ZM196.078 69.1562C195.453 69.1562 194.88 69.0521 194.359 68.8438C193.844 68.6354 193.401 68.3464 193.031 67.9766C192.661 67.612 192.375 67.1823 192.172 66.6875C191.974 66.1875 191.875 65.6484 191.875 65.0703V64.75C191.875 64.0885 191.979 63.4896 192.188 62.9531C192.396 62.4167 192.682 61.9583 193.047 61.5781C193.411 61.1979 193.833 60.9062 194.312 60.7031C194.797 60.4948 195.312 60.3906 195.859 60.3906C196.469 60.3906 197.008 60.4948 197.477 60.7031C197.945 60.9062 198.339 61.1901 198.656 61.5547C198.974 61.9245 199.214 62.3646 199.375 62.875C199.536 63.3854 199.617 63.9427 199.617 64.5469V65.3516H193.758V65.3906C193.815 65.7604 193.904 66.0703 194.023 66.3203C194.143 66.5703 194.307 66.7943 194.516 66.9922C194.724 67.2005 194.969 67.362 195.25 67.4766C195.536 67.5911 195.849 67.6484 196.188 67.6484C196.651 67.6484 197.083 67.5599 197.484 67.3828C197.885 67.2005 198.216 66.9427 198.477 66.6094L199.477 67.5781C199.195 67.9844 198.763 68.349 198.18 68.6719C197.602 68.9948 196.901 69.1562 196.078 69.1562ZM195.852 61.9062C195.586 61.9062 195.339 61.9557 195.109 62.0547C194.885 62.1484 194.685 62.2839 194.508 62.4609C194.331 62.6432 194.182 62.862 194.062 63.1172C193.943 63.3724 193.854 63.6615 193.797 63.9844H197.773V63.8594C197.773 63.6146 197.729 63.3724 197.641 63.1328C197.552 62.888 197.427 62.6745 197.266 62.4922C197.109 62.3151 196.911 62.1745 196.672 62.0703C196.438 61.9609 196.164 61.9062 195.852 61.9062ZM207.586 60.3906C207.888 60.3906 208.18 60.4115 208.461 60.4531C208.747 60.4948 208.971 60.5443 209.133 60.6016L208.867 62.4453C208.581 62.3828 208.297 62.3359 208.016 62.3047C207.74 62.2734 207.464 62.2578 207.188 62.2578C206.875 62.2578 206.594 62.2891 206.344 62.3516C206.094 62.4141 205.872 62.5104 205.68 62.6406C205.471 62.7656 205.294 62.9245 205.148 63.1172C205.003 63.3099 204.88 63.5312 204.781 63.7812V69H202.914V60.5469H204.664L204.742 61.7188L204.75 61.9141C205.094 61.4401 205.505 61.0677 205.984 60.7969C206.469 60.526 207.003 60.3906 207.586 60.3906ZM215.297 69.1562C214.672 69.1562 214.099 69.0521 213.578 68.8438C213.062 68.6354 212.62 68.3464 212.25 67.9766C211.88 67.612 211.594 67.1823 211.391 66.6875C211.193 66.1875 211.094 65.6484 211.094 65.0703V64.75C211.094 64.0885 211.198 63.4896 211.406 62.9531C211.615 62.4167 211.901 61.9583 212.266 61.5781C212.63 61.1979 213.052 60.9062 213.531 60.7031C214.016 60.4948 214.531 60.3906 215.078 60.3906C215.688 60.3906 216.227 60.4948 216.695 60.7031C217.164 60.9062 217.557 61.1901 217.875 61.5547C218.193 61.9245 218.432 62.3646 218.594 62.875C218.755 63.3854 218.836 63.9427 218.836 64.5469V65.3516H212.977V65.3906C213.034 65.7604 213.122 66.0703 213.242 66.3203C213.362 66.5703 213.526 66.7943 213.734 66.9922C213.943 67.2005 214.188 67.362 214.469 67.4766C214.755 67.5911 215.068 67.6484 215.406 67.6484C215.87 67.6484 216.302 67.5599 216.703 67.3828C217.104 67.2005 217.435 66.9427 217.695 66.6094L218.695 67.5781C218.414 67.9844 217.982 68.349 217.398 68.6719C216.82 68.9948 216.12 69.1562 215.297 69.1562ZM215.07 61.9062C214.805 61.9062 214.557 61.9557 214.328 62.0547C214.104 62.1484 213.904 62.2839 213.727 62.4609C213.549 62.6432 213.401 62.862 213.281 63.1172C213.161 63.3724 213.073 63.6615 213.016 63.9844H216.992V63.8594C216.992 63.6146 216.948 63.3724 216.859 63.1328C216.771 62.888 216.646 62.6745 216.484 62.4922C216.328 62.3151 216.13 62.1745 215.891 62.0703C215.656 61.9609 215.383 61.9062 215.07 61.9062Z" fill="white"/>
</svg>
