<svg width="2041" height="1353" viewBox="0 0 2041 1353" fill="none" xmlns="http://www.w3.org/2000/svg">
<path opacity="0.2" d="M1020.5 1L0.999957 676.5" stroke="black"/>
<path opacity="0.2" d="M1080.47 40.7351L60.9707 716.235" stroke="black"/>
<path opacity="0.2" d="M1140.44 80.4705L120.942 755.97" stroke="black"/>
<path opacity="0.2" d="M1200.41 120.206L180.912 795.706" stroke="black"/>
<path opacity="0.2" d="M1260.38 159.941L240.883 835.441" stroke="black"/>
<path opacity="0.2" d="M1320.35 199.677L300.852 875.177" stroke="black"/>
<path opacity="0.2" d="M1380.32 239.412L360.824 914.912" stroke="black"/>
<path opacity="0.2" d="M1440.29 279.147L420.795 954.647" stroke="black"/>
<path opacity="0.2" d="M1500.27 318.882L480.766 994.382" stroke="black"/>
<path opacity="0.2" d="M1560.24 358.618L540.735 1034.12" stroke="black"/>
<path opacity="0.2" d="M1620.21 398.353L600.706 1073.85" stroke="black"/>
<path opacity="0.2" d="M1680.18 438.088L660.676 1113.59" stroke="black"/>
<path opacity="0.2" d="M1740.15 477.823L720.647 1153.32" stroke="black"/>
<path opacity="0.2" d="M1800.12 517.559L780.619 1193.06" stroke="black"/>
<path opacity="0.2" d="M1860.09 557.294L840.589 1232.79" stroke="black"/>
<path opacity="0.2" d="M1920.06 597.03L900.559 1272.53" stroke="black"/>
<path opacity="0.2" d="M1980.03 636.764L960.53 1312.26" stroke="black"/>
<path opacity="0.2" d="M2040 676.5L1020.5 1352" stroke="black"/>
<path opacity="0.2" d="M900.559 80.4705L1920.06 755.97" stroke="black"/>
<path opacity="0.2" d="M840.588 120.206L1860.09 795.706" stroke="black"/>
<path opacity="0.2" d="M780.617 159.941L1800.12 835.441" stroke="black"/>
<path opacity="0.2" d="M720.646 199.677L1740.15 875.177" stroke="black"/>
<path opacity="0.2" d="M660.676 239.412L1680.18 914.912" stroke="black"/>
<path opacity="0.2" d="M600.706 279.147L1620.21 954.647" stroke="black"/>
<path opacity="0.2" d="M540.735 318.882L1560.24 994.382" stroke="black"/>
<path opacity="0.2" d="M480.776 358.618L1500.28 1034.12" stroke="black"/>
<path opacity="0.2" d="M420.807 398.353L1440.31 1073.85" stroke="black"/>
<path opacity="0.2" d="M360.836 438.088L1380.34 1113.59" stroke="black"/>
<path opacity="0.2" d="M300.865 477.823L1320.37 1153.32" stroke="black"/>
<path opacity="0.2" d="M240.895 517.559L1260.39 1193.06" stroke="black"/>
<path opacity="0.2" d="M180.924 557.294L1200.42 1232.79" stroke="black"/>
<path opacity="0.2" d="M120.953 597.03L1140.45 1272.53" stroke="black"/>
</svg>
